HIERARCHY
ROOT Spine
{
    OFFSET 0.0 0.0 -0.0
    CHANNELS 6 Xposition Yposition Zposition Zrotation Xrotation Yrotation
    JOINT ShoulderCenter
    {
        OFFSET 0.0 28.649211883544922 0.0
        CHANNELS 3 Zrotation Xrotation Yrotation
        JOINT LeftShoulder
        {
            OFFSET 18.34325408935547 0.0 0.0
            CHANNELS 3 Zrotation Xrotation Yrotation
            JOINT LeftElbow
            {
                OFFSET 29.939769744873047 0.0 0.0
                CHANNELS 3 Zrotation Xrotation Yrotation
                JOINT LeftHand
                {
                    OFFSET 31.052207946777344 0.0 0.0
                    CHANNELS 3 Zrotation Xrotation Yrotation
                    End Site
                    {
                        OFFSET 12.420881271362305 0.0 0.0
                    }
                }
            }
        }
        JOINT RightShoulder
        {
            OFFSET -18.34325408935547 0.0 0.0
            CHANNELS 3 Zrotation Xrotation Yrotation
            JOINT RightElbow
            {
                OFFSET -29.939769744873047 0.0 0.0
                CHANNELS 3 Zrotation Xrotation Yrotation
                JOINT RightHand
                {
                    OFFSET -31.052207946777344 0.0 0.0
                    CHANNELS 3 Zrotation Xrotation Yrotation
                    End Site
                    {
                        OFFSET -12.420881271362305 0.0 0.0
                    }
                }
            }
        }
        End Site
        {
            OFFSET 0.0 11.459683418273926 0.0
        }
    }
    JOINT LeftHip
    {
        OFFSET 15.816084366261643 -15.816084366261643 0.0
        CHANNELS 3 Zrotation Xrotation Yrotation
        JOINT LeftKnee
        {
            OFFSET 0.0 -39.30944061279297 0.0
            CHANNELS 3 Zrotation Xrotation Yrotation
            JOINT LeftFoot
            {
                OFFSET 0.0 -44.71875 0.0
                CHANNELS 3 Zrotation Xrotation Yrotation
                End Site
                {
                    OFFSET 0.0 0.0 17.88749885559082
                }
            }
        }
    }
    JOINT RightHip
    {
        OFFSET -15.816084366261643 -15.816084366261643 0.0
        CHANNELS 3 Zrotation Xrotation Yrotation
        JOINT RightKnee
        {
            OFFSET 0.0 -39.30944061279297 0.0
            CHANNELS 3 Zrotation Xrotation Yrotation
            JOINT RightFoot
            {
                OFFSET 0.0 -44.71875 0.0
                CHANNELS 3 Zrotation Xrotation Yrotation
                End Site
                {
                    OFFSET 0.0 0.0 17.88749885559082
                }
            }
        }
    }
}
MOTION
Frames: 5
Frame Time: 0.03333333333333333
5.299999713897705 8.800000190734863 51.400001525878906 -5.194430113805069 15.96544860015153 5.420630704689264 2.55169107157154e-07 -3.9214402046804287e-07 15.405563239713715 140.9378132315004 -35.950315076883165 -135.53496363155972 -2.3993022246572947e-06 2.7732931479973034e-06 141.1621460887573 0.0 -6.3611093629270335e-15 0.0 -98.11170640822537 17.484470558932436 -169.34998441682157 3.733253132890896e-07 2.1609505374236335e-06 -127.23574469749326 6.3611093629270335e-15 -6.3611093629270335e-15 3.531125038440127e-31 5.428716748824025 -7.2104036610261995 -32.19305436327259 7.251050516553176 -14.482497078114243 36.71969771508667 9.93923337957349e-17 -1.5530052155583576e-18 2.0965570410037831e-16 1.386152575979753 -10.969005806128896 23.6789334890195 -6.9443238727108465 -6.248764058741546 -13.417258239733057 7.95138670365879e-16 -9.939233379573489e-17 -9.193790876105475e-16
5.299999713897705 8.800000190734863 51.5 -5.19442950152295 15.773471644717166 5.436330686097232 -3.370314114373773e-07 -1.7839445984782843e-08 15.66313139456227 141.01172947045896 -36.08186297062524 -135.4643987086301 -2.8648741389118317e-07 -1.4943950098207563e-06 141.34315001963338 0.0 0.0 3.975693351829396e-15 -97.9936729725035 18.100971349213594 -169.15880114361727 2.0770525101553956e-07 4.369595581444144e-06 -127.1665444624582 -6.3611093629270335e-15 -3.531125038440127e-31 6.3611093629270335e-15 5.299167907183205 -6.860682575266777 -32.36789082622553 7.7172042825332525 -14.401964752147638 36.985739989173084 0.0 0.0 3.4399065524617625e-16 1.4123845143950224 -10.640072635875441 23.859168451564297 -7.0341990420723 -6.345473287672865 -13.630613341571266 7.95138670365879e-16 -9.939233379573489e-17 -9.193790876105475e-16
5.200000286102295 8.800000190734863 51.599998474121094 -5.381547072345451 15.3308934637445 5.520385321032029 3.458888552855382e-08 6.467965218989341e-07 15.66713203494167 141.1105353059724 -36.42667468798173 -135.7394995099184 1.1228951252611895e-06 -1.6125694121364145e-06 141.43771926177791 6.3611093629270335e-15 -1.3241718894150476e-31 -2.3854160110976376e-15 -97.77232418085471 18.13146136562414 -168.6249420390519 4.112339090052972e-06 -9.385937834823225e-07 -127.52235193481243 0.0 0.0 0.0 5.512280450993072 -6.442411655748615 -31.686926826138663 7.524317082382224 -14.5021005858936 36.745533728599966 -1.5530052155583578e-17 1.9412565194479477e-19 -1.8985488760200923e-16 1.625781566833208 -10.2177731632833 23.60917350614446 -7.011623355412057 -6.370432954747623 -13.861367401871787 7.951386703658791e-16 -9.93923337957349e-17 -1.3914926731402884e-15
5.299999713897705 8.699999809265137 51.5 -4.951889384896021 15.288018617395652 5.393583580769439 -3.7616008369112335e-08 -1.237298067122124e-06 15.397023120675772 140.56205979827928 -36.84404472062804 -135.7191709379891 4.568679866349742e-07 3.047027894844245e-06 141.28254823806847 0.0 0.0 -3.1805546814635168e-15 -98.10532361886557 18.254750882009645 -168.6632319952233 -9.106646482107714e-07 1.734340137581865e-06 -127.47265880433739 0.0 0.0 -6.3611093629270335e-15 5.104465809937251 -6.359439457011553 -32.351893174196526 7.582617864217097 -14.475205443812927 36.757762480038636 -1.2424041724466862e-17 1.1197081330121443e-35 -1.032748468346308e-16 1.3483264158751187 -10.28487904178144 23.25370256619783 -6.960932070706194 -6.117688854581346 -12.893974921705393 2.069018577211012e-33 2.9817700138720465e-16 -7.951386703658791e-16
5.299999713897705 8.699999809265137 51.5 -4.541037506623874 15.104666660830217 5.230302189432294 3.0505814162929613e-07 -4.303075863567805e-07 14.651285011995217 139.77533348584072 -36.67652306728662 -136.65755951924487 5.538663567273261e-07 -7.972704125123554e-07 141.4177525043551 -6.3611093629270335e-15 0.0 0.0 -98.29261047072256 17.58943780149082 -168.75834832958608 2.6965767177675045e-06 -7.494388726334043e-07 -127.38355172265695 -6.3611093629270335e-15 0.0 0.0 4.734420414872457 -6.111493091198458 -32.4459566812571 7.618601343969674 -14.467727994498889 36.933543144386334 -2.4848083448933722e-17 7.765026077791789e-19 -6.522621905345102e-16 0.979691586726216 -10.06452580366625 23.305638328019576 -6.960932070706194 -6.117688854581346 -12.893974921705393 2.069018577211012e-33 2.9817700138720465e-16 -7.951386703658791e-16
